<svg width="411" height="361" viewBox="0 0 411 361" fill="none" xmlns="http://www.w3.org/2000/svg">
<path d="M48.9185 136.945C33.4985 203.815 175.706 283.982 250.188 300.865C324.671 317.748 393.933 215.298 409.353 148.428C424.773 81.5575 304.466 50.5525 229.991 33.67C155.508 16.7875 64.346 70.075 48.926 136.945H48.9185Z" fill="#FBB040"/>
<path d="M222.123 358.908C315.044 358.908 390.371 319.375 390.371 270.61C390.371 221.845 315.044 182.312 222.123 182.312C129.203 182.312 53.876 221.845 53.876 270.61C53.876 319.375 129.203 358.908 222.123 358.908Z" fill="white" stroke="black" stroke-width="3.04" stroke-miterlimit="10"/>
<path d="M222.123 342.708C297.991 342.708 359.493 310.428 359.493 270.61C359.493 230.792 297.991 198.513 222.123 198.513C146.256 198.513 84.7534 230.792 84.7534 270.61C84.7534 310.428 146.256 342.708 222.123 342.708Z" fill="white" stroke="black" stroke-width="20.25" stroke-miterlimit="10"/>
<path d="M222.124 319.78C273.871 319.78 315.821 297.766 315.821 270.61C315.821 243.454 273.871 221.44 222.124 221.44C170.376 221.44 128.426 243.454 128.426 270.61C128.426 297.766 170.376 319.78 222.124 319.78Z" fill="white" stroke="black" stroke-width="3.04" stroke-miterlimit="10"/>
<path d="M19.9534 187.923C19.5859 186.445 20.7259 185.028 22.2559 185.043L40.2859 185.253C49.4434 185.358 58.5934 185.462 67.7509 185.567C69.2959 185.582 70.3984 187.052 69.9784 188.522C66.8134 199.667 63.6559 210.812 60.4909 221.965C60.2059 222.97 59.2834 223.66 58.2334 223.66H30.6559C29.5759 223.66 28.6384 222.932 28.3759 221.89L19.9459 187.923H19.9534Z" fill="black" stroke="black" stroke-width="3.04" stroke-miterlimit="10"/>
<path d="M11.021 135.16C20.621 147.175 32.1185 152.275 36.701 146.545C41.2835 140.815 37.211 126.422 27.6035 114.407C20.486 105.497 9.80599 103.54 4.75849 103.127C3.19099 103 1.90099 104.605 2.00599 106.57C2.33599 112.885 3.89599 126.25 11.021 135.16Z" fill="white" stroke="black" stroke-width="3.04" stroke-miterlimit="10" stroke-linecap="round"/>
<path d="M51.056 132.798C45.7235 140.088 44.2535 149.26 47.7635 153.28C51.2735 157.308 58.4435 154.66 63.776 147.37C67.7285 141.963 67.631 133.307 67.316 129.197C67.2185 127.915 66.236 126.79 65.2085 126.782C61.9085 126.752 55.0085 127.39 51.056 132.798Z" fill="white" stroke="black" stroke-width="3.04" stroke-miterlimit="10" stroke-linecap="round"/>
<path d="M15.2585 117.565C18.986 120.985 38.156 147.692 44.2535 180.347C45.1085 184.907 44.936 190.472 46.421 195.647C46.7885 185.44 43.0085 165.437 52.0685 148.285C54.8135 143.095 57.7535 138.798 60.566 135.288" stroke="black" stroke-width="3.04" stroke-miterlimit="10" stroke-linecap="round"/>
<path d="M113.988 62.0125C116.366 45.2575 108.581 34.4125 91.8335 31.15C108.581 34.4125 118.946 27.1 121.324 10.345C118.946 27.1 126.731 37.945 143.478 41.2075C126.731 37.945 116.366 45.2575 113.988 62.0125Z" fill="white"/>
<path d="M113.988 62.0125C116.366 45.2575 108.581 34.4125 91.8335 31.15C108.581 34.4125 118.946 27.1 121.324 10.345C118.946 27.1 126.731 37.945 143.478 41.2075C126.731 37.945 116.366 45.2575 113.988 62.0125Z" stroke="black" stroke-width="3.04" stroke-miterlimit="10" stroke-linecap="round"/>
<path d="M329.718 83.245C329.666 71.9125 323.448 65.74 312.011 65.695C323.448 65.7475 329.613 59.635 329.561 48.295C329.613 59.6275 335.831 65.8 347.268 65.845C335.831 65.7925 329.666 71.905 329.718 83.245Z" fill="white"/>
<path d="M329.718 83.245C329.666 71.9125 323.448 65.74 312.011 65.695C323.448 65.7475 329.613 59.635 329.561 48.295C329.613 59.6275 335.831 65.8 347.268 65.845C335.831 65.7925 329.666 71.905 329.718 83.245Z" stroke="black" stroke-width="3.04" stroke-miterlimit="10" stroke-linecap="round"/>
<path d="M269.613 22.03C267.738 15.205 262.983 12.49 256.083 14.29C262.983 12.49 265.699 7.8175 263.824 1C265.699 7.825 270.453 10.54 277.353 8.74001C270.453 10.54 267.738 15.2125 269.613 22.03Z" fill="white"/>
<path d="M269.613 22.03C267.738 15.205 262.983 12.49 256.083 14.29C262.983 12.49 265.699 7.8175 263.824 1C265.699 7.825 270.453 10.54 277.353 8.74001C270.453 10.54 267.738 15.2125 269.613 22.03Z" stroke="black" stroke-width="3.04" stroke-miterlimit="10" stroke-linecap="round"/>
<path d="M276.791 196.345C277.736 197.515 290.943 184.555 312.206 184.555C329.021 184.555 343.938 197.312 342.783 213.325C341.591 229.675 319.271 237.572 286.661 252.722C297.356 259.795 301.676 262.833 307.803 267.34C294.558 281.335 291.543 299.433 280.346 308.028C269.628 301.968 233.726 288.355 222.513 280.278C204.753 288.865 191.208 294.858 169.796 309.018C158.598 298.908 149.171 275.792 141.003 269.23C147.888 266.05 154.766 262.405 162.416 258.782C141.521 254.755 107.396 237.078 103.316 220.413C96.9334 194.275 124.211 178.982 142.541 184.555C150.866 187.067 168.018 195.655 174.648 200.2C176.681 194.65 175.788 186.258 177.326 180.708C202.143 182.44 253.826 180.46 272.906 180.46C273.423 198.137 275.336 194.515 276.798 196.352L276.791 196.345Z" fill="black" stroke="black" stroke-width="3.04" stroke-miterlimit="10"/>
<path d="M144.716 267.528C148.833 275.253 167.396 296.868 171.836 308.02C161.636 313.008 135.183 333.52 130.938 328.878C126.266 323.77 112.451 296.785 105.446 284.943C103.376 281.44 99.8134 276.123 105.603 274.938C111.341 273.768 110.433 275.838 121.308 276.955C129.116 277.75 136.466 270.257 144.716 267.535V267.528Z" fill="white" stroke="black" stroke-width="3.04" stroke-miterlimit="10"/>
<path d="M329.261 275.68C340.136 274.57 339.228 272.5 344.966 273.663C350.741 274.848 347.193 280.165 345.123 283.667C338.118 295.51 324.296 322.495 319.631 327.602C315.371 332.252 288.911 311.732 278.733 306.745C283.173 295.592 301.736 273.978 305.853 266.253C314.111 268.975 321.453 276.468 329.261 275.673V275.68Z" fill="white" stroke="black" stroke-width="3.04" stroke-miterlimit="10"/>
<path d="M214.991 46.285C214.991 46.285 218.418 42.8275 223.631 42.3625C230.478 41.755 237.836 45.1225 242.373 51.22C249.296 60.52 244.976 67.3525 248.966 83.1625C252.873 98.65 261.416 109.585 261.416 109.585C261.416 109.585 239.336 117.355 232.271 117.28C218.358 117.138 203.861 110.312 203.861 110.312C203.861 110.312 208.571 102.588 207.813 88.0975C207.371 79.675 199.143 53.7475 206.643 48.175C210.746 45.13 214.991 46.285 214.991 46.285Z" fill="white" stroke="black" stroke-width="3.04" stroke-miterlimit="10"/>
<path d="M238.473 91C239.223 98.5825 244.803 102.595 245.553 104.538C243.821 112.615 227.051 117.827 223.788 104.275C225.393 99.715 228.213 94.0225 225.108 89.41C222.026 84.8125 220.601 87.625 216.108 84.37C210.956 80.6425 209.688 75.145 209.973 67.5475C210.386 56.695 209.223 54.97 215.013 52.2775C225.048 59.875 231.026 57.145 231.543 60.22C231.821 61.8475 232.353 65.9275 232.728 65.3875C235.563 61.285 237.603 64.4875 237.603 66.2875C237.603 67.63 236.703 72.31 234.033 70.7875C232.556 69.9475 237.086 76.915 238.481 91.0075L238.473 91Z" fill="white" stroke="black" stroke-width="3.04" stroke-miterlimit="10"/>
<path d="M234.761 67.975C234.761 67.975 235.429 67.2925 234.604 66.61" stroke="black" stroke-width="2.03" stroke-miterlimit="10" stroke-linecap="round"/>
<path d="M216.176 75.9175C216.176 75.9175 219.619 76.78 222.341 75.31" stroke="black" stroke-width="2.03" stroke-miterlimit="10" stroke-linecap="round"/>
<path d="M216.866 69.8275C216.243 70.2325 215.193 70.18 214.728 69.7375C213.393 68.485 216.836 68.29 216.618 64.0075" stroke="black" stroke-width="2.03" stroke-miterlimit="10" stroke-linecap="round"/>
<path d="M213.806 62.4175C214.406 62.4175 214.909 62.89 214.909 63.4825C214.909 64.075 214.406 64.5775 213.806 64.5775C213.206 64.5775 212.726 64.0825 212.726 63.4825C212.726 62.8825 213.199 62.4175 213.806 62.4175ZM213.806 62.4175C214.406 62.4175 214.909 62.89 214.909 63.4825C214.909 64.075 214.406 64.5775 213.806 64.5775C213.206 64.5775 212.726 64.0825 212.726 63.4825C212.726 62.8825 213.199 62.4175 213.806 62.4175Z" fill="black"/>
<path d="M220.413 62.1775C221.013 62.1775 221.516 62.65 221.516 63.2425C221.516 63.835 221.013 64.3375 220.413 64.3375C219.813 64.3375 219.333 63.8425 219.333 63.2425C219.333 62.6425 219.806 62.1775 220.413 62.1775ZM220.413 62.1775C221.013 62.1775 221.516 62.65 221.516 63.2425C221.516 63.835 221.013 64.3375 220.413 64.3375C219.813 64.3375 219.333 63.8425 219.333 63.2425C219.333 62.6425 219.806 62.1775 220.413 62.1775Z" fill="black"/>
<path d="M222.543 60.49C221.463 59.98 220.383 59.575 218.951 59.8225" stroke="black" stroke-width="2.03" stroke-miterlimit="10" stroke-linecap="round"/>
<path d="M212.269 61.105C212.989 60.595 214.166 60.085 215.351 60.19" stroke="black" stroke-width="2.03" stroke-miterlimit="10" stroke-linecap="round"/>
<path d="M242.523 102.775C259.398 101.448 271.076 102.73 282.521 114.258C293.658 125.478 293.058 151.75 294.513 165.588C288.731 166.645 276.393 167.283 270.176 168.295C269.118 174.078 268.638 175.84 268.818 179.958C244.503 183.655 208.856 183.94 183.123 179.913C183.686 177.843 185.028 171.745 185.343 167.56C176.186 169.083 168.746 166.503 160.991 165.67C161.156 156.055 168.071 128.193 184.143 110.2C191.553 101.905 204.483 97.33 223.841 102.018C221.523 107.5 237.266 116.83 242.516 102.775H242.523Z" fill="white" stroke="black" stroke-width="3.04" stroke-miterlimit="10"/>
<path d="M357.184 129.018C356.329 127.78 361.301 125.267 361.834 122.14C362.366 119.102 362.479 116.448 363.634 115.6C364.721 114.79 365.471 116.537 365.486 118.907C365.539 122.582 364.616 126.595 361.991 128.733C360.386 128.965 358.084 128.98 357.176 129.018H357.184Z" fill="white" stroke="black" stroke-width="3.04" stroke-miterlimit="10"/>
<path d="M353.224 128.313C352.369 127.165 357.341 124.848 357.874 121.968C358.406 119.155 358.534 116.733 359.674 115.96C360.761 115.203 361.511 116.807 361.549 118.982C361.586 122.395 360.679 126.085 358.039 128.05C356.434 128.26 354.154 128.26 353.224 128.313Z" fill="white" stroke="black" stroke-width="3.04" stroke-miterlimit="10"/>
<path d="M349.286 126.76C348.416 125.785 353.403 123.827 353.936 121.39C354.453 119.005 352.833 117.392 353.973 116.74C355.061 116.102 356.561 117.107 357.506 118.705C358.968 121.18 356.201 125.612 353.568 127.277C351.978 127.457 350.201 126.73 349.286 126.767V126.76Z" fill="white" stroke="black" stroke-width="3.04" stroke-miterlimit="10"/>
<path d="M352.653 127.15C354.438 127.517 358.001 127.15 360.566 126.917C367.106 126.317 365.486 118.487 368.591 119.387C370.676 119.987 369.146 126.865 366.701 129.955C361.833 136.12 351.243 136.157 346.308 138.4C342.101 140.327 334.473 168.445 328.803 179.05C324.558 187.022 318.941 204.467 303.311 215.987C294.843 222.227 282.026 221.695 276.371 215.545C265.601 203.807 267.401 173.177 267.708 168.197C272.133 168.482 292.346 166.465 294.521 165.58C295.308 167.132 293.883 188.485 296.396 184.615C300.281 178.585 311.966 161.072 317.133 152.77C319.623 148.765 334.286 126.415 336.266 123.677C339.851 118.727 350.463 113.29 350.283 117.212C350.216 118.69 346.698 119.027 345.911 122.455C345.236 125.372 348.783 126.34 352.668 127.135L352.653 127.15Z" fill="white" stroke="black" stroke-width="3.04" stroke-miterlimit="10"/>
<path d="M94.2935 128.028C91.676 125.89 90.746 121.878 90.7985 118.203C90.836 115.833 91.5635 114.085 92.651 114.895C93.8135 115.743 93.9335 118.398 94.451 121.435C94.9835 124.563 99.9635 127.075 99.101 128.313C98.1935 128.275 95.891 128.26 94.286 128.028H94.2935Z" fill="white" stroke="black" stroke-width="3.04" stroke-miterlimit="10"/>
<path d="M98.246 127.338C95.606 125.373 94.6985 121.683 94.736 118.27C94.7735 116.095 95.5235 114.49 96.611 115.248C97.751 116.028 97.8785 118.45 98.411 121.255C98.9435 124.135 103.923 126.453 103.061 127.6C102.131 127.548 99.851 127.548 98.246 127.338Z" fill="white" stroke="black" stroke-width="3.04" stroke-miterlimit="10"/>
<path d="M102.723 126.558C100.083 124.893 97.3233 120.46 98.7858 117.985C99.7308 116.395 101.231 115.39 102.318 116.02C103.458 116.673 101.838 118.285 102.356 120.67C102.888 123.108 107.883 125.073 107.006 126.04C106.098 126.003 104.313 126.73 102.723 126.55V126.558Z" fill="white" stroke="black" stroke-width="3.04" stroke-miterlimit="10"/>
<path d="M110.388 121.75C109.601 118.323 102.761 116.395 107.283 115.315C112.421 114.115 116.448 118.023 120.033 122.965C122.013 125.703 136.278 148.33 139.166 152.058C145.301 159.94 156.011 177.88 159.903 183.903C162.416 187.773 160.331 166.3 161.118 164.748C163.293 165.633 184.173 167.77 188.613 167.485C188.898 172.473 190.721 203.095 179.928 214.833C174.273 220.983 161.456 221.515 152.988 215.275C137.351 203.755 131.733 186.31 127.496 178.338C121.826 167.733 114.198 139.615 109.991 137.688C105.056 135.445 94.4659 135.408 89.6134 129.243C87.1534 126.153 85.6234 119.275 87.7084 118.675C90.8134 117.775 89.1859 125.605 95.7334 126.205C98.2984 126.438 101.868 126.805 103.668 126.438C107.538 125.643 111.086 124.668 110.411 121.758L110.388 121.75Z" fill="white" stroke="black" stroke-width="3.04" stroke-miterlimit="10"/>
</svg>
