<?xml version="1.0" standalone="no"?>
<!DOCTYPE svg PUBLIC "-//W3C//DTD SVG 20010904//EN"
 "http://www.w3.org/TR/2001/REC-SVG-20010904/DTD/svg10.dtd">
<svg version="1.0" xmlns="http://www.w3.org/2000/svg"
 width="1000.000000pt" height="1080.000000pt" viewBox="0 0 1000.000000 1080.000000"
 preserveAspectRatio="xMidYMid meet">

<g transform="translate(0.000000,1080.000000) scale(0.100000,-0.100000)"
fill="#000000" stroke="none">
<path d="M2404 8346 c-35 -15 -118 -111 -179 -206 -151 -232 -213 -459 -201
-735 5 -126 34 -317 52 -347 4 -6 3 -8 -4 -4 -15 9 -103 195 -146 308 -19 53
-49 144 -65 203 -32 118 -52 148 -101 148 -46 0 -81 -32 -118 -108 -79 -161
-116 -327 -115 -515 1 -195 42 -355 144 -558 64 -129 55 -126 -66 23 -95 117
-182 249 -239 361 -60 120 -87 142 -142 119 -40 -16 -59 -60 -79 -170 -57
-330 30 -628 268 -911 82 -97 87 -106 51 -84 -149 90 -256 172 -375 286 -111
107 -138 119 -177 80 -25 -25 -27 -33 -25 -104 1 -88 30 -221 68 -313 96 -238
327 -451 631 -583 42 -19 72 -36 68 -39 -16 -9 -209 -36 -312 -43 -93 -6 -105
-9 -122 -32 -40 -50 -9 -95 122 -183 153 -100 314 -150 496 -153 101 -1 103
-1 80 -19 -35 -29 -151 -95 -223 -127 -80 -36 -99 -66 -68 -108 24 -32 64 -47
196 -73 170 -33 344 -22 489 32 55 20 57 23 63 63 3 22 37 318 75 656 42 372
77 647 90 695 28 110 104 263 180 363 64 85 181 194 257 238 l41 25 -70 147
c-281 590 -407 1062 -408 1528 0 82 -3 106 -17 123 -23 27 -79 35 -119 17z"/>
<path d="M7503 8350 c-35 -14 -43 -42 -43 -147 -1 -463 -127 -937 -408 -1525
l-70 -146 71 -49 c144 -98 288 -274 355 -434 66 -158 69 -183 183 -1219 16
-151 32 -285 34 -296 3 -15 21 -28 62 -43 146 -54 320 -65 490 -32 132 26 172
41 196 73 31 42 12 72 -68 108 -72 32 -188 98 -223 127 -23 18 -21 18 80 19
182 3 343 53 496 153 98 65 126 93 136 134 5 21 1 33 -17 51 -20 20 -37 24
-123 30 -101 7 -292 34 -308 43 -4 3 26 20 68 39 304 132 535 345 631 583 38
92 67 225 68 313 2 71 0 79 -25 104 -39 39 -66 27 -177 -80 -119 -114 -226
-196 -374 -286 -35 -20 -29 -11 51 85 238 284 324 579 266 910 -19 112 -38
154 -78 170 -55 23 -82 1 -142 -119 -57 -112 -144 -244 -239 -361 -121 -149
-130 -152 -66 -23 103 206 143 363 144 563 0 147 -11 219 -54 355 -60 187
-112 263 -179 263 -50 0 -68 -28 -110 -174 -21 -74 -52 -168 -68 -209 -37 -92
-123 -272 -128 -267 -2 2 6 50 18 108 29 142 31 415 5 537 -46 210 -140 399
-280 563 -68 81 -116 102 -174 79z"/>
<path d="M4835 7850 c-355 -41 -665 -176 -931 -409 -96 -83 -119 -125 -112
-204 5 -67 36 -113 92 -138 83 -38 146 -20 241 70 490 458 1266 453 1761 -11
84 -79 151 -96 231 -57 79 38 118 151 79 228 -23 44 -168 174 -269 242 -210
141 -444 232 -687 269 -104 15 -310 20 -405 10z"/>
<path d="M4879 7220 c-204 -24 -410 -118 -555 -253 -97 -91 -115 -147 -73
-234 24 -50 65 -82 120 -94 59 -14 111 4 171 58 81 71 164 121 252 150 114 37
286 39 396 5 90 -28 185 -82 263 -151 32 -28 70 -54 85 -57 15 -3 33 -8 41
-10 28 -9 97 19 133 53 56 55 68 138 30 210 -31 57 -189 174 -316 234 -172 80
-359 111 -547 89z"/>
<path d="M3510 6484 c-154 -32 -311 -111 -430 -214 -125 -108 -238 -293 -279
-455 -12 -46 -50 -345 -91 -710 -39 -346 -84 -749 -101 -895 -36 -305 -35
-392 5 -508 38 -112 82 -179 171 -269 65 -64 100 -90 166 -121 285 -138 606
-67 812 178 45 53 77 113 153 288 30 70 59 131 63 135 4 4 36 1 72 -8 317 -74
653 128 733 440 l12 50 201 3 201 2 17 -57 c9 -32 31 -87 48 -123 42 -85 168
-213 254 -258 128 -67 295 -89 432 -57 36 9 67 12 71 8 4 -4 39 -82 79 -173
108 -249 189 -344 366 -430 407 -198 881 58 946 510 12 82 9 116 -90 995 -60
534 -110 943 -122 990 -84 338 -356 600 -702 677 -120 26 -322 21 -437 -12
-164 -46 -356 -167 -453 -284 l-38 -46 -568 0 -569 0 -78 81 c-183 187 -405
280 -669 278 -60 0 -139 -7 -175 -15z m2891 -321 c130 -67 157 -235 54 -338
-97 -97 -255 -81 -331 35 -54 81 -41 194 31 265 69 70 156 83 246 38z m-2576
-87 c43 -28 55 -72 55 -201 l0 -115 119 0 c138 0 163 -7 191 -52 17 -27 20
-51 20 -136 l0 -104 -34 -34 -34 -34 -131 0 -131 0 0 -115 c0 -124 -10 -165
-50 -200 -18 -16 -39 -21 -120 -23 -174 -6 -200 22 -200 217 l0 121 -126 0
c-189 0 -204 14 -204 186 l0 106 34 34 34 34 130 0 130 0 4 135 c3 130 4 136
29 161 34 33 74 42 176 39 58 -1 90 -7 108 -19z m2168 -300 c18 -7 47 -28 65
-47 95 -97 81 -250 -30 -325 -91 -62 -191 -52 -269 26 -80 81 -88 183 -20 277
53 73 169 105 254 69z m825 -19 c59 -39 95 -105 95 -176 0 -211 -266 -296
-387 -123 -61 87 -43 224 39 286 51 39 74 46 146 43 52 -2 75 -8 107 -30z
m-421 -381 c67 -34 122 -118 123 -185 1 -123 -95 -221 -215 -221 -162 0 -262
163 -189 308 52 105 181 150 281 98z m-1197 -495 c16 -31 12 -112 -7 -133 -14
-16 -34 -18 -194 -18 -209 0 -209 0 -209 89 0 31 5 62 12 69 8 8 67 12 200 12
175 0 188 -1 198 -19z m-909 -17 c115 -34 207 -119 249 -231 33 -89 26 -206
-18 -295 -38 -78 -101 -139 -182 -176 -47 -22 -70 -26 -150 -26 -88 -1 -101 2
-162 32 -188 93 -266 319 -173 503 82 162 265 243 436 193z m1632 -5 c167 -55
264 -199 255 -378 -7 -137 -85 -254 -213 -316 -53 -26 -71 -29 -155 -30 -83 0
-102 4 -152 27 -157 73 -247 239 -218 400 26 144 116 250 249 295 83 28 153
29 234 2z"/>
<path d="M0 400 l0 -400 5000 0 5000 0 0 400 0 400 -5000 0 -5000 0 0 -400z
m2192 123 c23 -20 23 -57 1 -74 -15 -11 -16 -11 -5 1 27 31 11 72 -33 83 -19
4 -19 5 -1 6 11 0 28 -6 38 -16z m-69 -8 c-3 -9 -8 -14 -10 -11 -3 3 -2 9 2
15 9 16 15 13 8 -4z m-1760 -114 c22 -61 43 -108 47 -104 4 4 24 56 45 116 21
59 42 107 47 107 11 0 9 -5 -42 -149 -23 -64 -44 -107 -53 -109 -15 -3 -17 0
-67 143 -15 44 -31 88 -36 99 -5 13 -3 17 6 14 8 -2 32 -55 53 -117z m517 89
c0 -23 4 -30 20 -30 11 0 20 -4 20 -10 0 -5 -10 -10 -21 -10 -20 0 -21 -4 -17
-71 3 -55 8 -74 23 -85 23 -17 14 -29 -13 -15 -11 6 -22 25 -26 42 -10 51 -7
209 4 209 6 0 10 -13 10 -30z m515 16 c25 -11 33 -19 29 -30 -7 -19 -5 -19
-40 -1 -36 18 -55 19 -78 2 -28 -21 -9 -45 49 -62 87 -25 108 -74 54 -127 -29
-29 -33 -30 -90 -25 -68 6 -72 8 -64 29 5 13 12 14 40 5 50 -15 100 1 100 33
0 16 -8 28 -25 36 -87 40 -105 51 -108 67 -14 70 53 106 133 73z m105 -16 c0
-25 4 -30 25 -30 16 0 25 -6 25 -15 0 -9 -9 -15 -25 -15 -24 0 -25 -3 -25 -60
0 -55 2 -62 25 -72 14 -6 25 -15 25 -20 0 -18 -31 -20 -55 -4 -24 16 -25 20
-25 131 0 96 3 115 15 115 10 0 15 -10 15 -30z m482 -32 l3 -62 36 32 c20 18
45 32 55 32 14 0 9 -9 -21 -40 l-39 -40 42 -60 c40 -57 41 -60 20 -60 -16 0
-32 14 -53 45 -16 25 -33 45 -37 45 -5 0 -8 -20 -8 -45 0 -38 -3 -45 -20 -45
-19 0 -20 7 -20 130 0 122 1 130 20 130 16 0 19 -8 22 -62z m193 30 c1 -20 -2
-24 -11 -17 -8 7 -14 6 -17 -3 -3 -7 -6 2 -6 20 -1 27 3 33 17 30 11 -2 17
-13 17 -30z m-44 -35 c13 -16 12 -17 -3 -4 -17 13 -22 21 -14 21 2 0 10 -8 17
-17z m-1502 -19 c12 -15 21 -40 21 -55 0 -29 0 -29 -65 -29 -72 0 -83 -12 -44
-51 17 -17 30 -20 65 -16 43 4 59 -5 28 -17 -45 -17 -106 3 -123 41 -45 98 56
206 118 127z m191 16 c17 -11 10 -13 -40 -10 -47 2 -75 -28 -75 -80 0 -55 26
-80 82 -80 27 0 42 -4 38 -10 -9 -15 -78 -12 -102 5 -50 35 -50 135 0 170 24
17 74 20 97 5z m265 -13 c20 -16 28 -35 32 -69 5 -42 3 -50 -25 -78 -41 -41
-83 -41 -124 0 -28 28 -30 36 -25 78 9 82 84 119 142 69z m85 7 c0 -14 2 -14
22 0 24 17 38 20 38 9 0 -5 -14 -16 -30 -25 -29 -17 -30 -19 -30 -93 0 -43 -4
-75 -10 -75 -6 0 -10 40 -10 100 0 60 4 100 10 100 6 0 10 -7 10 -16z m537 1
c30 -21 44 -75 32 -120 -25 -88 -143 -88 -168 0 -20 72 20 135 84 135 17 0 40
-7 52 -15z m198 -5 c0 -10 -8 -14 -27 -12 -58 6 -91 -42 -67 -100 11 -28 36
-40 74 -35 12 1 20 -4 20 -13 0 -19 -48 -25 -85 -10 -63 26 -68 148 -6 179 31
15 91 9 91 -9z m5394 -83 c8 -26 17 -47 21 -47 4 0 13 21 21 47 8 25 20 48 27
51 8 2 4 -19 -12 -63 -36 -99 -36 -99 -72 0 -16 44 -20 65 -12 63 7 -3 19 -26
27 -51z m638 38 c2 -6 -9 -11 -23 -10 -39 0 -42 -23 -5 -36 34 -12 49 -43 31
-64 -13 -16 -38 -19 -64 -9 -27 10 -18 22 17 20 38 -1 43 19 8 37 -36 18 -48
42 -31 62 14 17 61 17 67 0z m333 -20 c0 -35 16 -47 26 -20 4 8 13 15 22 15
13 0 13 -3 -2 -19 -16 -18 -16 -21 -1 -50 19 -38 8 -40 -22 -3 l-22 27 -1 -27
c0 -16 -4 -28 -10 -28 -6 0 -10 30 -10 70 0 40 4 70 10 70 6 0 10 -16 10 -35z
m580 32 c0 -4 -34 -104 -45 -136 -3 -8 -8 -11 -11 -8 -8 7 38 147 48 147 4 0
8 -2 8 -3z m98 -9 c21 -21 13 -45 -25 -77 l-38 -30 43 -1 c23 0 42 -4 42 -10
0 -5 -22 -10 -50 -10 -62 0 -65 15 -14 63 42 40 39 62 -8 53 -26 -5 -29 -4
-18 9 15 18 51 20 68 3z m122 2 c0 -5 -11 -10 -25 -10 -14 0 -29 -8 -35 -20
-10 -19 -9 -20 12 -15 36 9 65 -27 50 -60 -21 -46 -92 -21 -92 32 0 27 17 64
34 75 16 11 56 10 56 -2z m100 -9 c-5 -11 -15 -23 -20 -26 -6 -4 -1 -14 12
-25 20 -15 21 -21 10 -44 -12 -27 -44 -34 -72 -16 -15 10 -13 11 30 13 31 2
39 33 11 42 -23 7 -27 20 -11 30 17 10 11 25 -10 25 -11 0 -20 5 -20 10 0 6
18 10 40 10 37 0 40 -2 30 -19z m120 14 c0 -6 -60 -127 -66 -134 -2 -2 -7 -2
-10 1 -3 3 6 29 20 57 14 28 26 53 26 56 0 3 -13 5 -30 5 -16 0 -30 5 -30 10
0 6 20 10 45 10 25 0 45 -2 45 -5z m92 -47 c2 -29 2 -61 0 -70 -5 -22 -22 -24
-22 -3 0 10 -10 15 -30 15 -16 0 -30 3 -30 6 0 16 56 104 67 104 6 0 13 -22
15 -52z m128 47 c0 -6 -60 -127 -66 -134 -2 -2 -7 -2 -10 1 -3 3 6 29 20 57
14 28 26 53 26 56 0 3 -13 5 -30 5 -16 0 -30 5 -30 10 0 6 20 10 45 10 25 0
45 -2 45 -5z m92 -47 c2 -29 2 -61 0 -70 -5 -22 -22 -24 -22 -3 0 10 -10 15
-30 15 -16 0 -30 3 -30 6 0 16 56 104 67 104 6 0 13 -22 15 -52z m88 -8 c0
-33 4 -60 10 -60 6 0 10 -4 10 -10 0 -5 -13 -10 -30 -10 -16 0 -30 5 -30 10 0
6 5 10 10 10 6 0 10 20 10 45 0 38 -2 43 -17 38 -16 -6 -16 -4 1 15 29 34 36
27 36 -38z m-2050 15 c9 -10 9 -15 1 -15 -15 0 -14 -57 2 -63 6 -2 9 -7 6 -11
-15 -17 -37 8 -41 47 -7 58 5 74 32 42z m360 0 c9 -10 9 -15 1 -15 -15 0 -14
-57 2 -63 6 -2 9 -7 6 -11 -15 -17 -37 8 -41 47 -7 58 5 74 32 42z m-532 -7
c23 -23 13 -38 -24 -38 -46 0 -41 -23 7 -30 27 -4 30 -7 16 -13 -28 -11 -44
-9 -61 9 -32 31 -14 84 29 84 12 0 26 -5 33 -12z m117 3 c3 -5 -9 -11 -27 -13
-28 -2 -33 -7 -33 -28 0 -21 5 -26 33 -28 36 -4 34 -22 -3 -22 -28 0 -55 24
-55 50 0 37 67 69 85 41z m169 -7 c21 -20 20 -43 -1 -66 -20 -22 -46 -23 -67
-2 -31 30 -9 84 34 84 10 0 26 -7 34 -16z m86 6 c0 -4 -7 -10 -15 -14 -9 -3
-15 -19 -15 -41 0 -19 -4 -35 -10 -35 -5 0 -10 22 -10 49 0 45 2 49 25 49 14
0 25 -4 25 -8z m274 -6 c21 -20 20 -43 -1 -66 -20 -22 -46 -23 -67 -2 -31 30
-9 84 34 84 10 0 26 -7 34 -16z m121 7 c3 -5 -9 -11 -27 -13 -28 -2 -33 -7
-33 -28 0 -21 5 -26 33 -28 36 -4 34 -22 -3 -22 -28 0 -55 24 -55 50 0 37 67
69 85 41z m242 2 c14 -6 10 -9 -17 -13 -29 -4 -35 -9 -35 -30 0 -21 5 -26 33
-28 36 -4 34 -22 -3 -22 -28 0 -55 24 -55 50 0 22 25 50 45 50 7 0 22 -3 32
-7z m107 -9 c21 -20 20 -43 -1 -66 -20 -22 -46 -23 -67 -2 -31 30 -9 84 34 84
10 0 26 -7 34 -16z m111 5 c3 -5 14 -3 25 3 28 18 50 -6 50 -53 0 -22 -4 -39
-10 -39 -5 0 -10 18 -10 41 0 33 -3 40 -17 37 -13 -2 -19 -14 -21 -41 -4 -50
-22 -47 -22 4 0 36 -2 40 -22 37 -19 -2 -24 -10 -26 -40 -5 -55 -22 -47 -22
10 l0 48 35 1 c19 1 37 -3 40 -8z m-325 -79 c0 -5 -4 -10 -10 -10 -5 0 -10 5
-10 10 0 6 5 10 10 10 6 0 10 -4 10 -10z"/>
<path d="M2150 500 c0 -5 5 -10 10 -10 6 0 10 5 10 10 0 6 -4 10 -10 10 -5 0
-10 -4 -10 -10z"/>
<path d="M536 418 c-28 -39 -21 -48 39 -48 59 0 67 9 45 51 -15 27 -64 25 -84
-3z"/>
<path d="M986 424 c-50 -50 -21 -144 44 -144 48 0 80 50 66 104 -13 53 -75 75
-110 40z"/>
<path d="M1616 408 c-32 -46 -8 -118 39 -118 28 0 55 34 55 70 0 36 -27 70
-55 70 -13 0 -31 -10 -39 -22z"/>
<path d="M9004 325 c-4 -9 -2 -21 4 -27 16 -16 47 -5 47 17 0 26 -42 34 -51
10z"/>
<path d="M9337 350 c-18 -29 -18 -30 2 -30 17 0 21 6 21 30 0 17 -1 30 -3 30
-1 0 -11 -13 -20 -30z"/>
<path d="M9557 350 c-18 -29 -18 -30 2 -30 17 0 21 6 21 30 0 17 -1 30 -3 30
-1 0 -11 -13 -20 -30z"/>
<path d="M7415 340 c-4 -6 5 -10 19 -10 14 0 26 5 26 10 0 6 -9 10 -19 10 -11
0 -23 -4 -26 -10z"/>
<path d="M7694 336 c-10 -26 4 -48 28 -44 17 2 23 10 23 28 0 18 -6 26 -23 28
-13 2 -25 -3 -28 -12z"/>
<path d="M8054 336 c-10 -26 4 -48 28 -44 17 2 23 10 23 28 0 18 -6 26 -23 28
-13 2 -25 -3 -28 -12z"/>
<path d="M8524 336 c-10 -26 4 -48 28 -44 17 2 23 10 23 28 0 18 -6 26 -23 28
-13 2 -25 -3 -28 -12z"/>
</g>
</svg>
